<svg width="600" height="600" viewBox="0 0 632 632" fill="none" xmlns="http://www.w3.org/2000/svg">
<path
class='m'
d="M465.49 90.71C465.49 90.71 458.63 75.28 446.2 74H362.02C349.59 75.28 342.74 90.71 342.74 90.71L315.6 179.58L288.47 90.71C288.47 90.71 281.61 75.28 269.18 74H185C172.57 75.28 165.72 90.71 165.72 90.71L92 332.14C123.14 313.28 176.29 303 176.29 303L220.04 153.82C221.64 146.75 227.09 146.43 227.09 146.43C227.09 146.43 232.54 146.75 234.15 153.82L251.17 211.85L275.18 290.47C275.18 290.47 276.5 294.06 279.47 297.92C281.54 300.59 284.39 303.4 288.16 305.24C288.17 305.24 288.17 305.25 288.17 305.25C288.17 305.25 288.17 305.25 288.18 305.25L288.19 305.26C290.6 306.42 293.37 307.19 296.54 307.29H334.67C335.82 307.25 336.93 307.13 337.98 306.92C338 306.92 338.01 306.92 338.03 306.91C338.86 306.76 339.65 306.55 340.42 306.3C340.43 306.3 340.43 306.29 340.44 306.29C341.35 305.99 342.22 305.64 343.05 305.24C346.82 303.4 349.67 300.59 351.74 297.92C354.71 294.06 356.03 290.47 356.03 290.47L380.04 211.85L397.06 153.82C398.66 146.75 404.11 146.43 404.11 146.43C404.11 146.43 409.56 146.75 411.17 153.82L454.92 303C454.92 303 508.06 313.28 539.2 332.14L465.49 90.71Z" fill="black"/>
<path
class='fire'
d="M196.219 332C196.219 332 284.759 423.76 435.549 346.49C436.779 345.86 441.749 370.91 441.859 372.34C443.489 393.43 436.899 414.1 424.609 431.19C413.679 446.37 399.179 458.85 383.189 468.45C373.749 474.12 363.929 478.28 355.689 485.75C347.549 493.13 341.259 502.51 338.359 513.17C336.539 519.86 336.069 526.85 336.699 533.74C337.069 537.84 337.829 541.89 338.869 545.87C339.339 547.66 341.569 558.29 343.259 558.73C343.259 558.73 287.719 544.24 290.139 463.75C290.479 452.52 286.829 440.03 276.669 433.95C264.419 426.62 246.059 428.46 236.139 438.77C229.849 445.3 226.619 454.2 224.949 462.95C224.929 462.93 172.339 425.64 196.219 332Z" fill="#FF5D01"/>
<style>
    @media (prefers-color-scheme:dark){
		.m{
			fill:#fff;
		}
	}
  </style>
</svg>
