<?xml version="1.0" encoding="utf-8"?>
<!-- Svg Vector Icons : http://www.onlinewebfonts.com/icon -->
<!DOCTYPE svg PUBLIC "-//W3C//DTD SVG 1.1//EN" "http://www.w3.org/Graphics/SVG/1.1/DTD/svg11.dtd">
<svg version="1.1" xmlns="http://www.w3.org/2000/svg" xmlns:xlink="http://www.w3.org/1999/xlink" x="0px" y="0px" viewBox="0 0 1000 1000" enable-background="new 0 0 1000 1000" xml:space="preserve">
<metadata> Svg Vector Icons : http://www.onlinewebfonts.com/icon </metadata>
<g><g transform="translate(0.000000,511.000000) scale(0.100000,-0.100000)"><path d="M4856.4,4993.7c-321.4-32.1-588.6-136.6-926.1-363.6c-213-142.6-498.2-407.8-642.9-600.7c-130.6-170.8-285.3-488.2-343.5-703.1c-62.3-231-64.3-721.2-4-924.1l38.2-130.6l-90.4-30.1c-120.5-40.2-160.7-118.5-160.7-311.4c2-231,132.6-721.2,247.1-914.1c54.2-92.4,136.6-180.8,168.8-180.8c14.1,0,30.1-24.1,38.2-54.2c54.2-251.1,114.5-464.1,166.7-592.6c263.2-630.8,745.3-1008.5,1414.3-1108.9c323.5-50.2,630.8,4,976.4,170.8c178.8,88.4,233,126.6,383.7,275.2c287.3,285.3,454,622.8,570.5,1153.2c10,48.2,20.1,54.2,68.3,44.2c126.6-26.1,265.2,186.8,383.8,586.6c124.5,427.9,126.5,703.1,4,793.5l-54.2,40.2l34.1,194.9c114.5,624.8,86.4,1161.2-74.3,1500.7c-94.4,200.9-285.3,369.6-470.1,419.9c-28.1,8-80.4,56.3-120.5,114.5c-215,309.4-705.1,568.5-1169.2,618.8C5083.4,5015.8,5081.4,5015.8,4856.4,4993.7z"/><path d="M3219-1023.2c-319.4-182.8-795.5-405.8-1255.6-590.6c-423.9-170.8-532.4-235-713.2-413.8c-377.7-375.7-490.2-890-492.2-2234V-4790H4999h4242.9l-12.1,699.1c-6,383.7-22.1,787.5-34.2,898c-58.3,542.4-198.9,912.1-437.9,1153.2c-168.8,170.8-335.5,269.2-717.2,419.9c-526.3,210.9-1125,498.2-1440.4,691.1c-64.3,40.2-104.5,54.2-114.5,40.2c-6-12-210.9-646.9-452-1414.3c-241.1-765.4-446-1398.2-452-1406.3c-6-8-92.4,210.9-188.8,488.2L5216-2718.7l82.4,124.5c124.6,188.8,223,403.8,247.1,542.4c40.2,235-22.1,369.6-217,466.1c-110.5,56.2-136.6,60.3-333.5,60.3c-196.9,0-221-4-329.5-60.3c-130.6-66.3-200.9-152.7-223-269.2c-32.1-168.8,64.3-454,253.1-739.3l82.4-124.5L4601.2-3221c-96.4-275.2-182.8-496.2-188.8-488.2c-12.1,10-650.9,2021-863.9,2706.1c-22.1,72.3-46.2,130.6-54.2,128.6C3486.2-874.5,3363.7-942.8,3219-1023.2z"/></g></g>
</svg>