<svg preserveAspectRatio="xMidYMid meet" data-bbox="0 0.01 527.51 116.17" viewBox="0 0 527.52 116.18" xmlns:xlink="http://www.w3.org/1999/xlink" xmlns="http://www.w3.org/2000/svg" height="140" width="140" data-type="ugc" role="presentation" aria-hidden="true">
    <g>
        <defs>
            <linearGradient gradientUnits="userSpaceOnUse" y2="-15.79" x2="138.64" y1="91.92" x1="-29.66" id="68168f3b-7b02-46f7-835f-a86c2b9c2749_comp-lk5ijdlr">
                <stop stop-color="#31e4fa" offset="0"></stop>
                <stop stop-color="#4877ff" offset=".5"></stop>
                <stop stop-color="#d775ff" offset="1"></stop>
            </linearGradient>
            <linearGradient xlink:href="#68168f3b-7b02-46f7-835f-a86c2b9c2749_comp-lk5ijdlr" y2="10.72" x2="155.61" y1="118.44" x1="-12.69" id="f4e73194-ecbd-4cbf-b00f-9e1835c0f76f_comp-lk5ijdlr"></linearGradient>
        </defs>
        <g>
            <path fill="url(#68168f3b-7b02-46f7-835f-a86c2b9c2749_comp-lk5ijdlr)" d="M78.53 50.86 50.47 1.27 0 90.43h20.9L50.47 38.2l17.37 30.69 10.69-18.03z"></path>
            <path fill="url(#f4e73194-ecbd-4cbf-b00f-9e1835c0f76f_comp-lk5ijdlr)" d="M128.19 72.81H98.34l40.22-71.05H62.14l10.37 17.61h35.18L67.47 90.43h71.09l-10.37-17.62z"></path>
            <path d="M217.79 91.83c-6.26 0-12.16-1.19-17.69-3.55-5.54-2.37-10.4-5.66-14.59-9.89-4.19-4.23-7.46-9.13-9.83-14.71s-3.55-11.58-3.55-18.01 1.2-12.41 3.61-17.95c2.41-5.54 5.73-10.4 9.96-14.59 4.23-4.19 9.17-7.42 14.84-9.7 5.66-2.28 11.8-3.42 18.39-3.42 7.36 0 14.1 1.35 20.23 4.06 6.13 2.71 11.27 6.55 15.41 11.54l-11.8 11.8c-2.71-3.72-6.13-6.55-10.27-8.5-4.14-1.94-8.71-2.92-13.7-2.92-5.67 0-10.68 1.25-15.03 3.74-4.36 2.5-7.76 5.98-10.21 10.46-2.45 4.48-3.68 9.64-3.68 15.47s1.22 11.25 3.68 15.73c2.45 4.48 5.77 7.97 9.96 10.46 4.19 2.5 8.9 3.74 14.14 3.74 5.66 0 10.48-1.01 14.46-3.04 3.97-2.03 7.02-5.05 9.13-9.07 2.11-4.01 3.17-8.94 3.17-14.78l11.29 7.86-39.06-.38V40.96h45.53v2.54c0 10.65-1.9 19.58-5.71 26.76-3.8 7.19-9.05 12.58-15.73 16.17-6.68 3.6-14.33 5.39-22.96 5.39Z" fill="#11143d"></path>
            <path d="M273.6 90.43V29.17h16.62v61.26H273.6Zm16.62-33.74-6.47-4.44c.76-7.52 2.96-13.46 6.6-17.82 3.63-4.35 8.88-6.53 15.73-6.53 3.04 0 5.73.49 8.05 1.46 2.32.97 4.46 2.56 6.4 4.76l-10.4 12.05a7.771 7.771 0 0 0-3.36-2.35c-1.31-.46-2.81-.7-4.5-.7-3.55 0-6.45 1.1-8.69 3.3-2.24 2.2-3.36 5.62-3.36 10.27Z" fill="#11143d"></path>
            <path d="M353.38 91.83c-6.17 0-11.73-1.42-16.68-4.25-4.95-2.83-8.86-6.68-11.73-11.54-2.88-4.86-4.31-10.34-4.31-16.42s1.44-11.39 4.31-16.17c2.87-4.78 6.79-8.58 11.73-11.41 4.95-2.83 10.51-4.25 16.68-4.25s11.86 1.4 16.81 4.19c4.95 2.79 8.88 6.6 11.8 11.41 2.92 4.82 4.38 10.23 4.38 16.23s-1.44 11.46-4.31 16.36c-2.88 4.9-6.81 8.77-11.8 11.61-4.99 2.83-10.61 4.25-16.87 4.25Zm0-15.6c3.13 0 5.9-.72 8.31-2.16 2.41-1.44 4.27-3.38 5.58-5.83 1.31-2.45 1.97-5.28 1.97-8.5s-.7-6.04-2.09-8.5c-1.39-2.45-3.26-4.38-5.58-5.77-2.33-1.39-5.05-2.09-8.18-2.09s-5.75.7-8.12 2.09c-2.37 1.4-4.21 3.32-5.52 5.77-1.31 2.45-1.97 5.29-1.97 8.5s.65 6.05 1.97 8.5c1.31 2.45 3.15 4.4 5.52 5.83 2.37 1.44 5.07 2.16 8.12 2.16Z" fill="#11143d"></path>
            <path d="M423.01 91.57c-5.33 0-10.11-1.12-14.33-3.36-4.23-2.24-7.53-5.39-9.89-9.45-2.37-4.06-3.55-8.75-3.55-14.08V29.17h16.74V64.3c0 2.54.42 4.71 1.27 6.53.84 1.82 2.11 3.19 3.8 4.12 1.69.93 3.68 1.4 5.96 1.4 3.47 0 6.17-1.06 8.12-3.17 1.94-2.11 2.92-5.07 2.92-8.88V29.17h16.62v35.51c0 5.33-1.19 10.02-3.55 14.08-2.37 4.06-5.64 7.21-9.83 9.45-4.19 2.24-8.94 3.36-14.27 3.36Z" fill="#11143d"></path>
            <path d="M463.85 116.18V29.17h16.62v16.11l-2.79 14.84 2.66 14.97v41.09h-16.49Zm33.99-24.48c-4.4 0-8.37-.89-11.92-2.66-3.55-1.78-6.4-4.25-8.56-7.42s-3.32-6.74-3.49-10.72V49.08c.17-4.06 1.33-7.67 3.49-10.84s5.01-5.69 8.56-7.55c3.55-1.86 7.52-2.79 11.92-2.79 5.66 0 10.76 1.39 15.28 4.19 4.52 2.79 8.05 6.6 10.59 11.41 2.54 4.82 3.8 10.27 3.8 16.36s-1.29 11.41-3.87 16.23-6.11 8.62-10.59 11.41c-4.48 2.79-9.56 4.19-15.22 4.19Zm-2.79-15.35c3.04 0 5.71-.72 7.99-2.16 2.28-1.44 4.08-3.4 5.39-5.9 1.31-2.49 1.97-5.35 1.97-8.56s-.66-6.04-1.97-8.5c-1.31-2.45-3.11-4.4-5.39-5.83-2.28-1.44-4.99-2.16-8.12-2.16-2.96 0-5.6.72-7.93 2.16-2.33 1.44-4.14 3.38-5.45 5.83-1.31 2.45-1.97 5.29-1.97 8.5s.61 6.07 1.84 8.56c1.22 2.5 3.04 4.46 5.45 5.9 2.41 1.44 5.14 2.16 8.18 2.16Z" fill="#11143d"></path>
        </g>
    </g>
</svg>